<svg width="64" height="64" viewBox="0 0 64 64" fill="none" xmlns="http://www.w3.org/2000/svg">
<path fill-rule="evenodd" clip-rule="evenodd" d="M18.4904 47.5623C18.4738 35.4854 18.4656 29.4476 18.4656 29.4476C18.6605 26.7228 19.8014 25.5487 21.8873 25.9255C23.1711 26.5775 23.8089 28.0374 23.7995 30.3027C24.2684 36.9453 24.5034 40.2666 24.5034 40.2666C24.9345 41.6981 26.0412 41.7146 27.8247 40.3162C31 37.1969 33.5 34.8819 33.5 34.8819C35.5 34 37.6374 34.8819 37.6374 36.5V37.1969C37.3976 38.2918 37.9185 38.5929 39.1964 38.1028C39.8524 37.8512 40.5 37.8512 40.5 37.8512C42 38.1028 43.0209 38.5 43.0209 40.3162V41.2729C43.0209 42.5 42.9867 43.126 44.4808 43.0339C45.1739 42.9912 45.4046 43.0339 45.4046 43.0339C46.5 43.2 46.9004 44 47 44.5C47.1473 45.2398 47.1504 45.5 47 46C46.8496 46.5 46.8 47 46.8 47C46.8 48 47 48.5 48.5 48C54.4717 44.8122 56.7584 43.9139 56.7584 43.9139C57.8273 43.6351 58.4817 43.8524 58.7203 44.5682C58.9258 45.3962 58.5573 46.1509 57.6136 46.8324C45.4174 55.4462 37.7945 60.2191 34.7437 61.1487C28.7566 62.1786 24.0098 60.4837 20.503 56.0664C19.3762 53.5789 18.7053 50.7442 18.4904 47.5623Z" fill="black"/>
<path fill-rule="evenodd" clip-rule="evenodd" d="M5.91158 30.9571C9.73011 34.7603 13.2687 38.0142 16.5286 40.719C16.5286 40.719 16.5286 37.7166 16.5286 31.7118C10.6242 28.4236 7.6726 26.7807 7.6726 26.7807C5.17573 26.6496 4.58874 28.0421 5.91158 30.9571Z" fill="black"/>
<path fill-rule="evenodd" clip-rule="evenodd" d="M21.5235 23.9366C18.9734 23.8362 18.403 24.8425 18.403 24.8425C18.403 24.8425 18.4077 18.9641 18.4408 7.8605C19.3809 4.72819 22.988 5.48883 23.3223 8.16168C24.429 18.226 24.9817 23.2575 24.9817 23.2575C26.1439 23.9815 26.8668 23.8291 27.1503 22.8016C27.0133 10.5924 26.9447 4.48848 26.9447 4.48848C27.8955 1.45066 31.5239 2.22783 32.2279 5.24321C32.2952 17.6555 32.3294 23.8611 32.3294 23.8611C33.005 24.1859 33.6594 24.0524 34.2913 23.4583C35.633 13.7638 36.3039 8.91655 36.3039 8.91655C37.7106 6.35472 39.8838 7.72481 40.3799 9.72207C39.5413 19.6847 38.5 34.5 38.5 34.5C35 28.5 28.5 37.5 28.5 37.5C27.4157 38.7827 26.6648 36.3196 26.542 35.7373C26.2066 30.0679 25.6243 26.9061 25.6243 26.9061C25.0148 25.0742 23.4628 23.8161 21.5235 23.9366Z" fill="black"/>
</svg>
